<?xml version="1.0" encoding="utf-8"?>
<!-- Generator: Adobe Illustrator 25.0.0, SVG Export Plug-In . SVG Version: 6.00 Build 0)  -->
<svg version="1.1" id="NULS_LOGO" xmlns="http://www.w3.org/2000/svg" xmlns:xlink="http://www.w3.org/1999/xlink" x="0px" y="0px"
	 viewBox="0 0 803.2 359.4" style="enable-background:new 0 0 803.2 359.4;" xml:space="preserve">
<style type="text/css">
	.st0{fill:#00E789;}
	.st1{fill:#1C1D21;}
</style>
<g id="LOGO">
	<path class="st0" d="M186,216.4l19.8,27.2v55.5l-72.3-30.7V123.9c0-10.9,8.8-19.8,19.8-19.8l0,0l69.6,95.8l35.4,21.6V102.3
		l-32.8-13.9V170l-19.8-27.2V60.3L278,91v134.1c0,10.9-8.8,19.8-19.8,19.8l0,0L208,213.1l-54.7-75.4v119.4L186,271V216.4z"/>
</g>
<g id="S">
	<path class="st1" d="M665.5,182.3c-3.2-3.7-7.2-6.6-11.7-8.4c-7.4-3.4-15.4-5-23.4-5.8c-2.9-0.3-5.9-0.5-8.5-1.8
		c-1.6-0.8-3-2.1-3.9-3.6c-2.8-4.9,0.7-9.4,5-10.9c2.6-0.8,5.3-1.1,8-1c0,0,12.5,0,12.5,13.4l24.9-0.1c0-31.6-37.4-31.6-37.4-31.6
		c-9.3,0-19.4,1.5-27.1,7.5c-5.2,4.1-8.7,9.9-9.8,16.4c-1.3,6.9-0.4,14.3,4,19.8c2.9,3.4,6.5,6.1,10.6,8c7.2,3.5,15,5.1,22.9,5.9
		c2.9,0.3,5.9,0.5,8.5,1.8c1.7,0.8,3.1,2.1,4,3.6c2.8,4.9-0.7,9.4-5,10.9c-2.6,0.8-5.3,1.1-8,1c0,0-12.5,0-12.5-13.4l-26.5,0.1
		c0,31.6,38.9,31.6,39,31.6c7.1,0,14.3-0.9,21-3.8c7.3-3,13.1-8.9,16-16.2C671,197.9,670.9,188.9,665.5,182.3z"/>
</g>
<g id="L">
	<path class="st1" d="M525.9,223.2v-88.4h19.7c3.2,0,5.8,2.6,5.8,5.8l0,0v62.6h31.4v20L525.9,223.2z"/>
</g>
<g id="U">
	<path class="st1" d="M480.5,140.6v49.6c0,7.1-5.7,12.8-12.8,12.8l0,0l0,0c-7.1,0-12.8-5.8-12.8-12.8v-49.6c0-3.2-2.6-5.8-5.8-5.8
		l0,0h-19.8v58.3c0,21.2,17.2,32.5,38.4,32.5l0,0c21.2,0,38.4-11.3,38.4-32.5v-58.3h-19.7C483.2,134.8,480.6,137.4,480.5,140.6
		L480.5,140.6z"/>
</g>
<g id="N">
	<path class="st1" d="M332.9,223.2v-88.4H350c1.8,0,3.5,0.8,4.6,2.3l29.4,42v-38.4c0-3.2,2.6-5.8,5.8-5.8l0,0h19.7v88.4h-17.1
		c-1.8,0-3.5-0.8-4.6-2.2l-29.4-41.2v43.4L332.9,223.2z"/>
</g>
</svg>
